<svg version="1.1" xmlns="http://www.w3.org/2000/svg" viewBox="0 0 1920 1080">
<style type="text/css">
	.st0{fill:#FE0000;}
	.st1{fill:#010000;}
	.st2{fill:#700000;}
	.st3{fill:#570000;}
</style>
<g>
	<g>
		<g>
			<path class="st0" d="M305.37,103.47c-3.25-5.49-6.58-10.93-9.75-16.47c-7.91-13.81-15.82-27.62-23.58-41.51
				c-2.69-4.81-5.45-9.44-3.5-15.76c1.31-4.25,4.13-4.85,7.23-5.92c-0.42,0.37-0.83,0.74-0.57,0.5c5.35-0.2,11.31-0.62,17.28-0.62
				c335.11-0.03,670.22-0.04,1005.33,0.05c9.15,0,18.53-1.94,27.45,2.04c-0.41-0.39-0.81-0.78-1.22-1.17
				c6.77,3.7,8,10.24,4.83,16.01c-9.55,17.39-19.57,34.51-29.49,51.7c-12.32,21.36-24.76,42.66-37.07,64.03
				c-11.14,19.35-22.19,38.75-33.25,58.14c-9.04,15.84-18.05,31.69-27.07,47.54c-53.04,0-106.08,0.02-159.12-0.08
				c-1.55,0-3.1-1.13-4.65-1.74c4.08-7.56,8.08-15.17,12.27-22.67c5.7-10.18,11.55-20.27,17.32-30.42c3.53-6.2,6.9-12.5,10.54-18.64
				c4.17-7.04-0.87-16.99-9.51-18.49c-2.2-0.75-4.4-2.15-6.6-2.15c-175.24-0.1-350.47-0.1-525.71-0.05c-2.16,0-4.31,0.66-6.47,1.01
				c-5.25-0.53-8.39,2.44-10.84,6.63c-2.43,4.16-2.41,8.1,0.05,12.4c5.85,10.21,11.35,20.63,17.09,30.9
				c7.74,13.85,15.58,27.64,23.37,41.46c-1.55,0.6-3.1,1.73-4.65,1.74c-41.91,0.1-83.81,0.07-125.72,0.08
				c-11.18,0-22.36,0.09-33.54,0.14c-8.43-14.76-16.83-29.53-25.3-44.26c-8.06-14-16.18-27.97-24.31-41.93
				c-2.84-4.88-5.78-9.7-8.67-14.55c0.17-0.75,0.72-1.73,0.45-2.23c-3.42-6.2-6.96-12.34-11.08-19.55c0,1.77,0,2.31,0,2.86
				c-3.59-6.66-7.18-13.32-10.77-19.98c-1.96-4.05-3.77-8.18-5.92-12.12C308.88,107.96,307.01,105.78,305.37,103.47z"/>
			<path class="st0" d="M1076.11,483.2c-10.65,18.19-21.37,36.33-31.92,54.58c-9.92,17.15-19.7,34.38-29.45,51.62
				c-8.15,14.42-16.11,28.95-24.27,43.37c-14.71,26-29.45,51.99-44.29,77.92c-13.63,23.83-27.46,47.53-41.1,71.36
				c-12.61,22.04-25.03,44.2-37.63,66.25c-12.39,21.67-24.95,43.24-37.38,64.89c-6.91,12.02-13.57,24.19-20.64,36.12
				c-1.93,3.26-2.97,7.46-7.96,8.34c-4.57,0.8-8.54,0.03-10.96-4.09c-8.43-14.35-16.77-28.76-25.04-43.2
				c-7.98-13.93-15.78-27.96-23.75-41.9c-7.1-12.42-14.3-24.78-21.46-37.16c-11.39-19.72-22.84-39.4-34.16-59.16
				c-9.29-16.21-18.36-32.55-27.65-48.76c-10.09-17.6-20.42-35.07-30.45-52.7c-7.15-12.56-13.91-25.34-20.99-37.94
				c-7.87-14-15.9-27.91-23.87-41.85c-7.24-12.67-14.49-25.34-21.76-38c-9.3-16.21-18.66-32.38-27.92-48.61
				c-3.97-6.96-7.73-14.05-11.59-21.07c1.55-0.6,3.1-1.73,4.65-1.74c53.34-0.09,106.67-0.08,160.01-0.08
				c12.28,21.72,24.56,43.44,36.83,65.17c14.05,24.9,28.05,49.84,42.14,74.72c6.69,11.82,13.59,23.51,20.26,35.34
				c2.4,4.26,10.74,7.39,15.83,6.46c7.69-1.4,10.65-7.28,13.86-12.89c12.11-21.14,23.93-42.45,35.9-63.66
				c13.99-24.78,28.01-49.54,42.06-74.29c5.89-10.38,11.92-20.67,17.89-31.01c1.79,0.05,3.57,0.14,5.36,0.14
				c51.6,0.01,103.2-0.01,154.8,0.08C1073.01,481.46,1074.56,482.59,1076.11,483.2z"/>
			<path d="M335.99,466.62c0-63.35,0-126.46,0-189.82c308.59,0,617.09,0,925.85,0c0,63.14,0,126.35,0,189.82
				C953.4,466.62,644.91,466.62,335.99,466.62z M1261.01,277.76c-308.23,0-616.11,0-923.87,0c0,62.9,0,125.49,0,187.98
				c308.13,0,615.9,0,923.87,0C1261.01,403.03,1261.01,340.55,1261.01,277.76z"/>
			<path class="st1" d="M1324.04,24.62c0.41,0.39,0.81,0.78,1.22,1.17c-8.92-3.99-18.3-2.04-27.45-2.04
				c-335.11-0.1-670.22-0.09-1005.33-0.05c-5.96,0-11.93,0.42-17.28,0.62c-0.27,0.24,0.15-0.13,0.57-0.5
				c2.44-0.35,4.86-1.01,7.29-1.01c344.06-0.05,688.11-0.05,1032.17,0.03C1318.17,22.83,1321.1,24,1324.04,24.62z"/>
			<path d="M530.08,168.83c2.16-0.35,4.31-1.01,6.47-1.01c175.24-0.05,350.47-0.05,525.71,0.05c2.2,0,4.4,1.4,6.6,2.15
				c-3.01-0.44-6.01-1.28-9.02-1.28c-173.97-0.06-347.95-0.06-521.92-0.05C535.3,168.69,532.69,168.78,530.08,168.83z"/>
			<path d="M686.53,481.38c-53.34,0-106.67-0.02-160.01,0.08c-1.55,0-3.1,1.13-4.65,1.74c-0.47-0.7-0.95-1.39-1.65-2.44
				c1.3-0.1,2.39-0.27,3.49-0.27c52.99-0.01,105.97-0.02,158.96,0.03C683.96,480.52,685.25,481.08,686.53,481.38z"/>
			<path d="M1076.11,483.2c-1.55-0.6-3.1-1.73-4.65-1.74c-51.6-0.09-103.2-0.07-154.8-0.08c-1.79,0-3.57-0.09-5.36-0.14
				c1.06-0.25,2.13-0.72,3.19-0.72c53.71-0.04,107.41-0.03,161.12-0.03c0.56,0,1.11,0,2.19,0
				C1077.07,481.66,1076.59,482.43,1076.11,483.2z"/>
			<path d="M395.84,262.19c11.18-0.05,22.36-0.14,33.54-0.14c41.91-0.02,83.81,0.01,125.72-0.08c1.55,0,3.1-1.13,4.65-1.74
				c0.47,0.7,0.95,1.39,1.63,2.41c-0.97,0.12-1.77,0.3-2.57,0.3c-53.11,0.01-106.22,0.02-159.33-0.02
				C398.27,262.91,397.06,262.44,395.84,262.19z"/>
			<path d="M1038.23,260.23c1.55,0.6,3.1,1.73,4.65,1.74c53.04,0.09,106.08,0.08,159.12,0.08c-0.84,0.3-1.69,0.87-2.53,0.87
				c-53.88,0.04-107.76,0.03-161.63,0.02c-0.26,0-0.52-0.15-1.09-0.32C1037.27,261.76,1037.75,261,1038.23,260.23z"/>
			<path class="st2" d="M326.93,142.53c0-0.54,0-1.09,0-2.86c4.11,7.21,7.66,13.34,11.08,19.55c0.28,0.5-0.28,1.48-0.45,2.23
				C334.01,155.14,330.47,148.83,326.93,142.53z"/>
			<path class="st3" d="M305.37,103.47c1.64,2.31,3.51,4.49,4.87,6.96c2.16,3.94,3.97,8.07,5.92,12.12
				C312.56,116.19,308.96,109.83,305.37,103.47z"/>
			<path class="st0" d="M1261.01,277.76c0,62.79,0,125.27,0,187.98c-307.97,0-615.74,0-923.87,0c0-62.5,0-125.08,0-187.98
				C644.9,277.76,952.77,277.76,1261.01,277.76z M1233.27,305.86c-289.74,0-579.13,0-868.39,0c0,44.47,0,88.63,0,132.69
				c289.64,0,578.91,0,868.39,0C1233.27,394.27,1233.27,350.22,1233.27,305.86z"/>
			<path d="M1233.27,305.86c0,44.36,0,88.41,0,132.69c-289.47,0-578.75,0-868.39,0c0-44.06,0-88.22,0-132.69
				C654.14,305.86,943.52,305.86,1233.27,305.86z M1232.47,306.71c-289.22,0-578.03,0-866.79,0c0,43.83,0,87.4,0,130.91
				c289.07,0,577.88,0,866.79,0C1232.47,393.9,1232.47,350.44,1232.47,306.71z"/>
			<path d="M1027.46,320.05c0,34.89,0,69.38,0,104.05c-8.6,0-17.01,0-25.75,0c0-26.19,0-52.2,0-78.22
				c-0.18-0.02-0.37-0.04-0.55-0.06c-6.38,25.04-12.79,50.08-19.12,75.14c-0.58,2.29-1.42,3.48-4.05,3.38
				c-5.66-0.21-11.33-0.21-16.99,0c-2.62,0.1-3.49-1.06-4.07-3.36c-6.33-25.06-12.73-50.1-19.66-75.09c0,26,0,52.01,0,78.2
				c-8.74,0-17.16,0-25.76,0c0-34.64,0-69.14,0-104.04c13.35,0,26.57-0.06,39.79,0.13c1,0.01,2.59,1.65,2.89,2.8
				c5.06,19.54,9.97,39.12,15.61,58.81c1.38-5.2,2.83-10.38,4.13-15.6c3.62-14.55,7.14-29.12,10.87-43.65
				c0.26-1.01,1.87-2.37,2.86-2.38C1000.86,319.99,1014.09,320.05,1027.46,320.05z"/>
			<path d="M783.43,342.55c0,5.77,0,10.87,0,16.32c16.56,0,33.04,0,49.76,0c0,7.06,0,13.78,0,20.85c-16.42,0-32.89,0-49.61,0
				c0,7.06,0,13.78,0,20.85c18.21,0,36.47,0,54.98,0c0,7.97,0,15.59,0,23.46c-28.66,0-57.35,0-86.3,0c0-34.46,0-68.96,0-103.72
				c28.04,0,56.14,0,84.5,0c0,7.24,0,14.56,0,22.24C819.17,342.55,801.51,342.55,783.43,342.55z"/>
			<path d="M518.36,424.28c-10.39,0-20.65,0.08-30.9-0.13c-1.02-0.02-2.48-1.66-2.93-2.86c-1.43-3.8-2.31-7.8-3.76-11.59
				c-0.43-1.12-2.06-2.51-3.15-2.53c-10.43-0.19-20.86-0.19-31.29,0.01c-1.03,0.02-2.59,1.57-2.96,2.73
				c-1.47,4.57-1.19,11.12-4.18,13.39c-3.18,2.42-9.34,0.9-14.19,0.96c-6.07,0.08-12.14,0.02-18.63,0.02
				c5.19-14,10.21-27.56,15.23-41.12c6.03-16.3,12.07-32.6,18.09-48.9c1.51-4.08,2.85-8.22,4.6-12.19c0.43-0.98,2.14-1.92,3.28-1.94
				c9.98-0.15,19.97-0.17,29.95,0.02c1.13,0.02,2.84,1.31,3.26,2.41c6.26,16.37,12.37,32.8,18.48,49.23
				c6.31,16.96,12.6,33.93,18.89,50.9C518.29,423.09,518.27,423.55,518.36,424.28z M462.05,346.76
				c-3.84,13.34-7.29,25.32-10.74,37.32c7.63,0,14.95,0,22.42,0C469.9,371.85,466.18,359.95,462.05,346.76z"/>
			<path d="M1204.27,424.28c-10.72,0-20.84,0.08-30.96-0.11c-1.13-0.02-2.8-1.4-3.24-2.53c-1.47-3.78-2.31-7.8-3.78-11.58
				c-0.48-1.24-2.13-2.84-3.27-2.87c-10.28-0.22-20.57-0.22-30.84,0c-1.15,0.02-2.89,1.61-3.29,2.83c-1.52,4.55-1.23,11-4.23,13.4
				c-2.97,2.38-9.08,0.8-13.81,0.85c-6.1,0.06-12.21,0.02-18.92,0.02c2.42-6.63,4.68-12.94,7.01-19.22
				c6.05-16.29,12.13-32.57,18.19-48.86c4.19-11.27,8.31-22.56,12.62-33.78c0.39-1.02,1.94-2.25,2.97-2.26
				c10.13-0.17,20.27-0.18,30.4,0.01c1.1,0.02,2.75,1.39,3.17,2.51c9.96,26.58,19.76,53.23,29.64,79.84
				C1198.53,409.56,1201.29,416.55,1204.27,424.28z M1159.26,384.21c-3.84-12.24-7.59-24.23-11.74-37.46
				c-3.84,13.39-7.27,25.36-10.73,37.46C1144.54,384.21,1151.77,384.21,1159.26,384.21z"/>
			<path d="M574.12,320.05c10.43,0,20.57,0.04,30.7-0.03c2.34-0.02,3.46,0.48,4.26,3.15c6.93,23.06,14.12,46.04,21.24,69.04
				c0.15,0.47,0.4,0.91,0.93,2.09c3.4-10.98,6.66-21.13,9.68-31.34c3.46-11.69,6.62-23.47,10.09-35.16
				c2.31-7.79,2.45-7.75,10.97-7.75c7.75,0,15.5,0,23.58,0c-3.6,9.94-7.08,19.7-10.66,29.43c-8.91,24.19-17.84,48.38-26.89,72.51
				c-0.38,1.01-2.03,2.17-3.11,2.19c-10.42,0.16-20.85,0.1-31.46,0.1C600.34,389.52,587.26,354.87,574.12,320.05z"/>
		</g>
	</g>
</g>
</svg>
